<svg width="64" height="64" viewBox="0 0 64 64" xmlns="http://www.w3.org/2000/svg">
  <defs>
    <radialGradient id="allGradient" cx="50%" cy="50%" r="50%">
      <stop offset="0%" style="stop-color:#FDE047;stop-opacity:1" />
      <stop offset="50%" style="stop-color:#F59E0B;stop-opacity:1" />
      <stop offset="100%" style="stop-color:#D97706;stop-opacity:1" />
    </radialGradient>
  </defs>
  
  <!-- Background Circle -->
  <circle cx="32" cy="32" r="30" fill="url(#allGradient)" stroke="#B45309" stroke-width="2"/>
  
  <!-- Star Shape -->
  <path d="M32 8 L36 20 L48 20 L39 28 L42 40 L32 34 L22 40 L25 28 L16 20 L28 20 Z" 
        fill="#FFFFFF" 
        stroke="#D97706" 
        stroke-width="1.5"/>
  
  <!-- Inner Sparkles -->
  <g fill="#FDE047" opacity="0.8">
    <circle cx="32" cy="25" r="1.5"/>
    <circle cx="28" cy="32" r="1"/>
    <circle cx="36" cy="32" r="1"/>
    <circle cx="32" cy="38" r="1.2"/>
  </g>
  
  <!-- Floating Elements -->
  <g fill="#FFFFFF" opacity="0.9">
    <!-- Mini stars around -->
    <path d="M15 15 L16 18 L19 18 L17 20 L18 23 L15 21 L12 23 L13 20 L11 18 L14 18 Z" 
          transform="scale(0.6)"/>
    <path d="M49 10 L50 13 L53 13 L51 15 L52 18 L49 16 L46 18 L47 15 L45 13 L48 13 Z" 
          transform="scale(0.7)"/>
    <path d="M12 48 L13 51 L16 51 L14 53 L15 56 L12 54 L9 56 L10 53 L8 51 L11 51 Z" 
          transform="scale(0.5)"/>
    <path d="M52 50 L53 53 L56 53 L54 55 L55 58 L52 56 L49 58 L50 55 L48 53 L51 53 Z" 
          transform="scale(0.6)"/>
  </g>
  
  <!-- Central Text -->
  <text x="32" y="36" text-anchor="middle" font-family="Arial Black, sans-serif" font-size="8" font-weight="bold" fill="#D97706">TÜM</text>
  
  <!-- Animated Glow -->
  <circle cx="32" cy="32" r="28" fill="none" stroke="#FDE047" stroke-width="1" opacity="0.5">
    <animate attributeName="r" values="28;32;28" dur="3s" repeatCount="indefinite"/>
    <animate attributeName="opacity" values="0.5;0.2;0.5" dur="3s" repeatCount="indefinite"/>
  </circle>
</svg>