<svg xmlns="http://www.w3.org/2000/svg" viewBox="0 0 100 100">
  <!-- Robot Head -->
  <rect x="30" y="25" width="40" height="35" rx="8" fill="#4a90e2" stroke="#2c5aa0" stroke-width="2"/>
  
  <!-- Antenna -->
  <line x1="45" y1="25" x2="45" y2="15" stroke="#2c5aa0" stroke-width="3"/>
  <circle cx="45" cy="12" r="3" fill="#e74c3c"/>
  <line x1="55" y1="25" x2="55" y2="18" stroke="#2c5aa0" stroke-width="3"/>
  <circle cx="55" cy="15" r="2" fill="#f39c12"/>
  
  <!-- Eyes -->
  <circle cx="40" cy="35" r="4" fill="#ffffff"/>
  <circle cx="40" cy="35" r="2" fill="#2c5aa0"/>
  <circle cx="60" cy="35" r="4" fill="#ffffff"/>
  <circle cx="60" cy="35" r="2" fill="#2c5aa0"/>
  
  <!-- Mouth -->
  <rect x="45" y="45" width="10" height="6" rx="3" fill="#2c5aa0"/>
  <rect x="47" y="47" width="2" height="2" rx="1" fill="#ffffff"/>
  <rect x="51" y="47" width="2" height="2" rx="1" fill="#ffffff"/>
  
  <!-- Robot Body -->
  <rect x="25" y="60" width="50" height="30" rx="5" fill="#87ceeb" stroke="#4a90e2" stroke-width="2"/>
  
  <!-- Control Panel -->
  <rect x="35" y="68" width="30" height="12" rx="2" fill="#2c5aa0"/>
  <circle cx="42" cy="72" r="2" fill="#e74c3c"/>
  <circle cx="50" cy="72" r="2" fill="#27ae60"/>
  <circle cx="58" cy="72" r="2" fill="#f39c12"/>
  <rect x="40" y="76" width="20" height="2" rx="1" fill="#ffffff" opacity="0.7"/>
  
  <!-- Arms -->
  <rect x="15" y="65" width="8" height="15" rx="4" fill="#4a90e2"/>
  <circle cx="19" cy="83" r="3" fill="#2c5aa0"/>
  <rect x="77" y="65" width="8" height="15" rx="4" fill="#4a90e2"/>
  <circle cx="81" cy="83" r="3" fill="#2c5aa0"/>
  
  <!-- Neural Network Lines -->
  <line x1="10" y1="20" x2="20" y2="25" stroke="#e74c3c" stroke-width="1" opacity="0.7"/>
  <line x1="20" y1="25" x2="25" y2="35" stroke="#e74c3c" stroke-width="1" opacity="0.7"/>
  <line x1="80" y1="20" x2="90" y2="25" stroke="#27ae60" stroke-width="1" opacity="0.7"/>
  <line x1="90" y1="25" x2="85" y2="35" stroke="#27ae60" stroke-width="1" opacity="0.7"/>
  
  <!-- Neural Nodes -->
  <circle cx="10" cy="20" r="2" fill="#e74c3c" opacity="0.7"/>
  <circle cx="25" cy="35" r="2" fill="#e74c3c" opacity="0.7"/>
  <circle cx="90" cy="25" r="2" fill="#27ae60" opacity="0.7"/>
  <circle cx="85" cy="35" r="2" fill="#27ae60" opacity="0.7"/>
</svg>
