<svg xmlns="http://www.w3.org/2000/svg" viewBox="0 0 100 100">
  <!-- Computer Monitor -->
  <rect x="20" y="25" width="60" height="40" rx="4" fill="#2c3e50" stroke="#34495e" stroke-width="2"/>
  <rect x="25" y="30" width="50" height="30" rx="2" fill="#3498db"/>
  
  <!-- Screen Content -->
  <rect x="30" y="35" width="15" height="8" rx="1" fill="#ffffff" opacity="0.9"/>
  <rect x="30" y="45" width="20" height="2" rx="1" fill="#ffffff" opacity="0.7"/>
  <rect x="30" y="49" width="25" height="2" rx="1" fill="#ffffff" opacity="0.7"/>
  <rect x="30" y="53" width="18" height="2" rx="1" fill="#ffffff" opacity="0.7"/>
  
  <!-- Code Symbols -->
  <text x="55" y="43" font-family="monospace" font-size="8" fill="#e74c3c">&lt;/&gt;</text>
  
  <!-- Monitor Stand -->
  <rect x="47" y="65" width="6" height="8" fill="#34495e"/>
  <rect x="40" y="73" width="20" height="3" rx="1.5" fill="#34495e"/>
  
  <!-- Keyboard -->
  <rect x="25" y="78" width="50" height="12" rx="3" fill="#ecf0f1" stroke="#bdc3c7" stroke-width="1"/>
  
  <!-- Keys -->
  <rect x="30" y="82" width="4" height="4" rx="1" fill="#95a5a6"/>
  <rect x="36" y="82" width="4" height="4" rx="1" fill="#95a5a6"/>
  <rect x="42" y="82" width="4" height="4" rx="1" fill="#95a5a6"/>
  <rect x="48" y="82" width="12" height="4" rx="1" fill="#3498db"/>
  <rect x="62" y="82" width="4" height="4" rx="1" fill="#95a5a6"/>
  
  <!-- Circuit Elements -->
  <circle cx="15" cy="15" r="3" fill="#e74c3c"/>
  <line x1="15" y1="12" x2="15" y2="8" stroke="#e74c3c" stroke-width="2"/>
  <line x1="12" y1="15" x2="8" y2="15" stroke="#e74c3c" stroke-width="2"/>
  
  <circle cx="85" cy="85" r="3" fill="#27ae60"/>
  <line x1="85" y1="82" x2="85" y2="78" stroke="#27ae60" stroke-width="2"/>
  <line x1="88" y1="85" x2="92" y2="85" stroke="#27ae60" stroke-width="2"/>
</svg>
