<svg width="32" height="32" viewBox="0 0 32 32" xmlns="http://www.w3.org/2000/svg">
  <defs>
    <linearGradient id="moonGradient" x1="0%" y1="0%" x2="100%" y2="100%">
      <stop offset="0%" style="stop-color:#64748B;stop-opacity:1" />
      <stop offset="100%" style="stop-color:#475569;stop-opacity:1" />
    </linearGradient>
    <radialGradient id="glowGradient" cx="50%" cy="50%" r="50%">
      <stop offset="0%" style="stop-color:#FDE047;stop-opacity:0.8" />
      <stop offset="100%" style="stop-color:#FDE047;stop-opacity:0" />
    </radialGradient>
  </defs>
  
  <!-- Moon Body -->
  <path d="M16 4 C22.627 4 28 9.373 28 16 C28 22.627 22.627 28 16 28 C12 28 8.5 25.5 7 22 C6 19.5 6 16.5 7 14 C8.5 8.5 12 4 16 4 Z" 
        fill="url(#moonGradient)" 
        stroke="#334155" 
        stroke-width="1"/>
  
  <!-- Moon Craters -->
  <circle cx="12" cy="10" r="1.5" fill="#334155" opacity="0.6"/>
  <circle cx="20" cy="14" r="2" fill="#334155" opacity="0.6"/>
  <circle cx="18" cy="22" r="1" fill="#334155" opacity="0.6"/>
  <circle cx="10" cy="20" r="1.2" fill="#334155" opacity="0.6"/>
  
  <!-- Stars -->
  <g fill="#FDE047">
    <circle cx="8" cy="8" r="0.8" opacity="0.9"/>
    <circle cx="25" cy="7" r="0.6" opacity="0.8"/>
    <circle cx="26" cy="20" r="0.7" opacity="0.9"/>
    <circle cx="6" cy="24" r="0.5" opacity="0.7"/>
    <circle cx="24" cy="26" r="0.6" opacity="0.8"/>
  </g>
  
  <!-- Star Twinkles -->
  <g stroke="#FDE047" stroke-width="0.8" fill="none" opacity="0.6">
    <path d="M8 6 L8 10 M6 8 L10 8"/>
    <path d="M25 5 L25 9 M23 7 L27 7"/>
    <path d="M26 18 L26 22 M24 20 L28 20"/>
  </g>
  
  <!-- Subtle Glow -->
  <circle cx="16" cy="16" r="14" fill="url(#glowGradient)" opacity="0.3"/>
</svg>