<svg width="32" height="32" viewBox="0 0 32 32" xmlns="http://www.w3.org/2000/svg">
  <defs>
    <linearGradient id="homeGradient" x1="0%" y1="0%" x2="100%" y2="100%">
      <stop offset="0%" style="stop-color:#10B981;stop-opacity:1" />
      <stop offset="100%" style="stop-color:#059669;stop-opacity:1" />
    </linearGradient>
  </defs>
  
  <!-- House Base -->
  <path d="M6 18 L16 8 L26 18 L26 26 C26 27.1 25.1 28 24 28 L8 28 C6.9 28 6 27.1 6 26 Z" 
        fill="url(#homeGradient)" 
        stroke="#065F46" 
        stroke-width="1"/>
  
  <!-- Roof -->
  <path d="M4 16 L16 4 L28 16 L26 18 L16 8 L6 18 Z" 
        fill="#7C2D12" 
        stroke="#451A03" 
        stroke-width="1"/>
  
  <!-- Door -->
  <rect x="13" y="20" width="6" height="8" rx="1" fill="#92400E" stroke="#451A03" stroke-width="1"/>
  <circle cx="17.5" cy="24" r="0.8" fill="#FCD34D"/>
  
  <!-- Windows -->
  <rect x="9" y="20" width="3" height="3" rx="0.5" fill="#FEF3C7" stroke="#92400E" stroke-width="0.5"/>
  <rect x="20" y="20" width="3" height="3" rx="0.5" fill="#FEF3C7" stroke="#92400E" stroke-width="0.5"/>
  
  <!-- Window Crosses -->
  <line x1="10.5" y1="20" x2="10.5" y2="23" stroke="#92400E" stroke-width="0.3"/>
  <line x1="9" y1="21.5" x2="12" y2="21.5" stroke="#92400E" stroke-width="0.3"/>
  <line x1="21.5" y1="20" x2="21.5" y2="23" stroke="#92400E" stroke-width="0.3"/>
  <line x1="20" y1="21.5" x2="23" y2="21.5" stroke="#92400E" stroke-width="0.3"/>
</svg>