<svg width="32" height="32" viewBox="0 0 32 32" xmlns="http://www.w3.org/2000/svg">
  <defs>
    <linearGradient id="globeGradient" x1="0%" y1="0%" x2="100%" y2="100%">
      <stop offset="0%" style="stop-color:#06B6D4;stop-opacity:1" />
      <stop offset="100%" style="stop-color:#0891B2;stop-opacity:1" />
    </linearGradient>
  </defs>
  
  <!-- Globe -->
  <circle cx="16" cy="16" r="12" fill="url(#globeGradient)" stroke="#0E7490" stroke-width="1.5"/>
  
  <!-- Longitude Lines -->
  <ellipse cx="16" cy="16" rx="12" ry="6" fill="none" stroke="#0E7490" stroke-width="1" opacity="0.7"/>
  <ellipse cx="16" cy="16" rx="12" ry="3" fill="none" stroke="#0E7490" stroke-width="1" opacity="0.7"/>
  
  <!-- Latitude Lines -->
  <ellipse cx="16" cy="16" rx="6" ry="12" fill="none" stroke="#0E7490" stroke-width="1" opacity="0.7"/>
  <ellipse cx="16" cy="16" rx="3" ry="12" fill="none" stroke="#0E7490" stroke-width="1" opacity="0.7"/>
  
  <!-- Equator -->
  <line x1="4" y1="16" x2="28" y2="16" stroke="#0E7490" stroke-width="1.5" opacity="0.8"/>
  
  <!-- Continents -->
  <path d="M8 12 Q10 10 12 12 L14 11 L16 13 L18 11 L20 13 L22 12 Q24 10 26 12 L26 20 Q24 22 22 20 L20 21 L18 19 L16 21 L14 19 L12 20 Q10 22 8 20 Z" 
        fill="#15803D" 
        opacity="0.6"/>
  
  <!-- Language symbols floating around -->
  <g fill="#FDE047" font-family="Arial, sans-serif" font-size="8" font-weight="bold">
    <text x="6" y="8" opacity="0.8">A</text>
    <text x="26" y="8" opacity="0.8">中</text>
    <text x="6" y="26" opacity="0.8">العربية</text>
    <text x="22" y="26" opacity="0.8">Ñ</text>
  </g>
</svg>