<svg xmlns="http://www.w3.org/2000/svg" viewBox="0 0 300 200">
  <!-- Water Drop -->
  <path d="M 80 50 Q 60 80 80 120 Q 100 80 80 50 Z" fill="#4da6ff"/>
  
  <!-- Ice Cube -->
  <rect x="140" y="40" width="30" height="30" fill="#e6f3ff" stroke="#b3d9ff" stroke-width="2"/>
  <polygon points="140,40 150,30 180,30 170,40" fill="#f0f8ff" stroke="#b3d9ff" stroke-width="1"/>
  <polygon points="170,40 180,30 180,60 170,70" fill="#ddeeff" stroke="#b3d9ff" stroke-width="1"/>
  <text x="145" y="85" font-family="Arial" font-size="12" fill="#333">Buz</text>
  
  <!-- Steam/Vapor -->
  <circle cx="220" cy="50" r="8" fill="#f0f0f0" opacity="0.8"/>
  <circle cx="230" cy="45" r="10" fill="#f0f0f0" opacity="0.6"/>
  <circle cx="240" cy="52" r="7" fill="#f0f0f0" opacity="0.8"/>
  <circle cx="250" cy="48" r="9" fill="#f0f0f0" opacity="0.7"/>
  <text x="215" y="85" font-family="Arial" font-size="12" fill="#333">Buhar</text>
  
  <!-- Water Glass -->
  <rect x="50" y="110" width="40" height="60" fill="none" stroke="#333" stroke-width="3" rx="5"/>
  <rect x="53" y="130" width="34" height="37" fill="#4da6ff" opacity="0.7"/>
  <ellipse cx="70" cy="130" rx="17" ry="3" fill="#66b3ff" opacity="0.5"/>
  <text x="45" y="185" font-family="Arial" font-size="12" fill="#333">Su</text>
  
  <!-- Transformation Arrows -->
  <path d="M 105 85 L 125 85" stroke="#333" stroke-width="2" fill="none" marker-end="url(#arrowhead)"/>
  <path d="M 175 85 L 195 85" stroke="#333" stroke-width="2" fill="none" marker-end="url(#arrowhead)"/>
  
  <!-- Arrow marker definition -->
  <defs>
    <marker id="arrowhead" markerWidth="10" markerHeight="7" refX="9" refY="3.5" orient="auto">
      <polygon points="0 0, 10 3.5, 0 7" fill="#333"/>
    </marker>
  </defs>
  
  <!-- Temperature indicators -->
  <text x="110" y="75" font-family="Arial" font-size="10" fill="#ff0000">Soğuk</text>
  <text x="190" y="75" font-family="Arial" font-size="10" fill="#ff0000">Sıcak</text>
  
  <!-- Water uses -->
  <circle cx="150" cy="140" r="25" fill="#87ceeb" opacity="0.3"/>
  <text x="130" y="130" font-family="Arial" font-size="14" fill="#333">🚿</text>
  <text x="160" y="130" font-family="Arial" font-size="14" fill="#333">🌱</text>
  <text x="145" y="150" font-family="Arial" font-size="14" fill="#333">🥤</text>
  
  <text x="80" y="190" font-family="Arial" font-size="14" fill="#333">💧 Su çok önemli!</text>
</svg>
